# Blender 3.6.0
# www.blender.org
mtllib breech.mtl
o Mesh
v -1.500000 2.000000 -1.000000
v -0.500000 1.050000 0.000000
v 0.500000 1.759651 -0.000000
v 0.500000 1.050000 -0.000000
v -1.500000 0.000000 0.000000
v -1.500000 2.000000 1.000000
v -0.500000 -0.050000 0.000000
v 0.490393 1.759651 -0.097545
v 1.500000 2.000000 -1.000000
v 0.500000 -0.050000 -0.000000
v 0.461940 1.759651 -0.191342
v -1.500000 0.000526 -0.000263
v 1.500000 0.000000 -0.000000
v 1.500000 2.000000 1.000000
v 0.415735 1.759651 -0.277785
v 1.500000 0.000526 -0.000263
v -1.500000 -2.000000 0.000000
v 0.353553 1.759651 -0.353553
v -1.500000 -2.000000 -1.000000
v 1.500000 -2.000000 -1.000000
v 0.277785 1.759651 -0.415735
v 1.500000 -2.000000 -0.000000
v 1.500000 1.332750 1.000000
v 0.191342 1.759651 -0.461940
v -1.500000 1.332750 1.000000
v 0.097545 1.759651 -0.490393
v -1.500000 0.000000 0.000437
v 1.500000 0.000000 0.000437
v -0.000000 1.759651 -0.500000
v -0.097545 1.759651 -0.490393
v -0.191342 1.759651 -0.461940
v -0.277785 1.759651 -0.415735
v -0.353553 1.759651 -0.353553
v -0.415735 1.759651 -0.277785
v -0.461940 1.759651 -0.191342
v -0.490393 1.759651 -0.097545
v -0.500000 1.759651 0.000000
v -0.490393 1.759651 0.097545
v -0.461940 1.759651 0.191342
v -0.415735 1.759651 0.277785
v -0.353553 1.759651 0.353553
v -0.277785 1.759651 0.415735
v -0.191342 1.759651 0.461940
v -0.097545 1.759651 0.490393
v 0.000000 1.759651 0.500000
v 0.097545 1.759651 0.490393
v 0.191342 1.759651 0.461940
v 0.277785 1.759651 0.415735
v 0.353553 1.759651 0.353553
v 0.415735 1.759651 0.277785
v 0.461940 1.759651 0.191342
v 0.490393 1.759651 0.097545
v -0.191342 -2.000000 -0.461940
v -0.277785 -2.000000 -0.415735
v -0.097545 -2.000000 -0.490393
v -0.000000 -2.000000 -0.500000
v -0.500000 -2.000000 0.000000
v -0.461940 -2.000000 -0.191342
v -0.490393 -2.000000 -0.097545
v -0.353553 -2.000000 -0.353553
v -0.415735 -2.000000 -0.277785
v 0.191342 -2.000000 -0.461940
v 0.353553 -2.000000 -0.353553
v 0.277785 -2.000000 -0.415735
v 0.500000 -2.000000 -0.000000
v 0.461940 -2.000000 -0.191342
v 0.490393 -2.000000 -0.097545
v 0.415735 -2.000000 -0.277785
v 0.097545 -2.000000 -0.490393
v -0.500000 0.000000 0.000000
v -0.500000 0.000000 0.000000
v 0.500000 0.000000 -0.000000
v -0.500000 0.000328 0.000000
v 0.499974 0.000526 -0.000263
v -0.499974 0.000526 -0.000263
v 0.500000 0.000328 -0.000000
v -0.500000 0.000876 0.000000
v 0.500000 0.000876 -0.000000
v 0.500000 0.000000 0.000437
v -0.500000 0.000000 0.000437
v -0.500000 0.000328 0.000000
v -0.500000 0.000328 0.000000
v -0.500000 0.000876 0.000000
v -0.500000 0.000876 0.000000
v -0.500000 1.050000 0.787705
v 0.500000 1.050000 0.787705
v -0.500000 1.050000 0.000000
v -0.500000 1.050000 0.000000
v -0.500000 0.000000 0.000000
v -0.490393 1.050000 0.097545
v -0.461940 1.050000 0.191342
v -0.415735 1.050000 0.277785
v -0.353553 1.050000 0.353553
v -0.277785 1.050000 0.415735
v -0.191342 1.050000 0.461940
v -0.097545 1.050000 0.490393
v 0.000000 1.050000 0.500000
v 0.097545 1.050000 0.490393
v 0.191342 1.050000 0.461940
v 0.277785 1.050000 0.415735
v 0.353553 1.050000 0.353553
v 0.415735 1.050000 0.277785
v 0.461940 1.050000 0.191342
v 0.490393 1.050000 0.097545
vn -0.0000 1.0000 -0.0000
vn 1.0000 -0.0000 -0.0000
vn -0.0000 -1.0000 -0.0000
vn -1.0000 -0.0000 -0.0000
vn -0.0000 -0.0000 -1.0000
vn -0.0000 -0.0000 1.0000
vn -0.0000 0.7997 0.6003
vn -0.0000 0.7995 0.6007
vn -0.0000 -0.6004 0.7997
vn -0.9952 -0.0000 0.0980
vn -0.9569 -0.0000 0.2903
vn -0.8819 -0.0000 0.4714
vn -0.7730 -0.0000 0.6344
vn -0.6344 -0.0000 0.7730
vn -0.4714 -0.0000 0.8819
vn -0.2903 -0.0000 0.9569
vn -0.0980 -0.0000 0.9952
vn 0.0980 -0.0000 0.9952
vn 0.2903 -0.0000 0.9569
vn 0.4714 -0.0000 0.8819
vn 0.6344 -0.0000 0.7730
vn 0.7730 -0.0000 0.6344
vn 0.8819 -0.0000 0.4714
vn 0.9569 -0.0000 0.2903
vn 0.9952 -0.0000 0.0980
vn 0.9952 -0.0000 -0.0980
vn 0.9569 -0.0000 -0.2903
vn 0.8819 -0.0000 -0.4714
vn 0.7730 -0.0000 -0.6344
vn 0.6344 -0.0000 -0.7730
vn 0.4714 -0.0000 -0.8819
vn 0.2903 -0.0000 -0.9569
vn 0.0980 -0.0000 -0.9952
vn -0.0980 -0.0000 -0.9952
vn -0.2903 -0.0000 -0.9569
vn -0.4714 -0.0000 -0.8819
vn -0.6344 -0.0000 -0.7730
vn -0.7730 -0.0000 -0.6344
vn -0.8819 -0.0000 -0.4714
vn -0.9569 -0.0000 -0.2903
vn -0.9952 -0.0000 -0.0980
vn -0.0000 -0.0000 -0.0000
vn 0.3794 0.9253 -0.0000
vn 0.7047 0.5904 0.3936
vn -0.0543 -0.1324 0.9897
vn -0.7071 -0.7071 -0.0000
vt 0.222438 0.639750
vt 0.277562 0.639750
vt 0.277562 0.694875
vt 0.222438 0.694875
vt 0.249993 0.722430
vt 0.250012 0.722438
vt 0.250000 0.722438
vt 0.250000 0.750000
vt 0.222438 0.750000
vt 0.277562 0.704071
vt 0.247311 0.786574
vt 0.250000 0.786750
vt 0.250000 0.805125
vt 0.222438 0.805125
vt 0.250000 0.768375
vt 0.247311 0.768551
vt 0.244726 0.769074
vt 0.242344 0.769923
vt 0.240255 0.771066
vt 0.238541 0.772458
vt 0.237268 0.774047
vt 0.236484 0.775770
vt 0.236219 0.777562
vt 0.236484 0.779355
vt 0.237268 0.781078
vt 0.238541 0.782667
vt 0.240255 0.784059
vt 0.242344 0.785202
vt 0.244726 0.786051
vt 0.249993 0.832695
vt 0.277562 0.851054
vt 0.277562 0.860250
vt 0.222438 0.860250
vt 0.250000 0.832687
vt 0.250012 0.832687
vt 0.167313 0.750000
vt 0.167313 0.805125
vt 0.323492 0.750000
vt 0.332687 0.750000
vt 0.332687 0.805125
vt 0.323492 0.805125
vt 0.222438 0.676500
vt 0.222462 0.694875
vt 0.222462 0.676500
vt 0.222462 0.658125
vt 0.222462 0.639750
vt 0.222438 0.658125
vt 0.167313 0.786750
vt 0.222438 0.786750
vt 0.168691 0.786750
vt 0.222438 0.768375
vt 0.167313 0.768375
vt 0.168691 0.768375
vt 0.222438 0.786749
vt 0.222486 0.805125
vt 0.222486 0.786750
vt 0.222456 0.786750
vt 0.222486 0.750000
vt 0.222456 0.768375
vt 0.222486 0.768375
vt 0.176520 0.750000
vt 0.176520 0.805125
vt 0.222425 0.786750
vt 0.186266 0.786750
vt 0.186266 0.768375
vt 0.222425 0.768375
vt 0.360250 0.765363
vt 0.360250 0.750000
vt 0.353359 0.750000
vt 0.353359 0.831390
vt 0.360250 0.831390
vt 0.360250 0.789176
vt 0.360250 0.788093
vt 0.360250 0.788086
vt 0.360231 0.788082
vt 0.360250 0.788074
vt 0.346469 0.750000
vt 0.346469 0.831390
vt 0.339578 0.750000
vt 0.339578 0.831390
vt 0.332687 0.831390
vt 0.325797 0.750000
vt 0.325797 0.831390
vt 0.318906 0.750000
vt 0.318906 0.831390
vt 0.312016 0.750000
vt 0.312016 0.831390
vt 0.305125 0.750000
vt 0.305125 0.831390
vt 0.298234 0.750000
vt 0.298234 0.831390
vt 0.291344 0.750000
vt 0.291344 0.831390
vt 0.284453 0.750000
vt 0.284453 0.831390
vt 0.277562 0.750000
vt 0.277562 0.831390
vt 0.270672 0.750000
vt 0.270672 0.831390
vt 0.263781 0.750000
vt 0.263781 0.831390
vt 0.256891 0.750000
vt 0.256891 0.831390
vt 0.250000 0.788093
vt 0.250000 0.789176
vt 0.250000 0.831390
vt 0.250000 0.765363
vt 0.250000 0.788074
vt 0.250019 0.788082
vt 0.250000 0.788086
vt 0.243109 0.750000
vt 0.243109 0.765363
vt 0.236219 0.750000
vt 0.236219 0.765363
vt 0.229328 0.750000
vt 0.229328 0.765363
vt 0.222438 0.765363
vt 0.215547 0.750000
vt 0.215547 0.765363
vt 0.208656 0.750000
vt 0.208656 0.765363
vt 0.201766 0.750000
vt 0.201766 0.765363
vt 0.194875 0.750000
vt 0.194875 0.765363
vt 0.187984 0.750000
vt 0.187984 0.765363
vt 0.181094 0.750000
vt 0.181094 0.765363
vt 0.174203 0.750000
vt 0.174203 0.765363
vt 0.167313 0.765363
vt 0.160422 0.750000
vt 0.160422 0.765363
vt 0.153531 0.750000
vt 0.153531 0.765363
vt 0.146641 0.750000
vt 0.146641 0.765363
vt 0.139750 0.750000
vt 0.139750 0.765363
vt 0.354017 0.674623
vt 0.357028 0.684551
vt 0.358045 0.694875
vt 0.357028 0.705199
vt 0.354017 0.715127
vt 0.349126 0.724276
vt 0.342545 0.732295
vt 0.334526 0.738876
vt 0.325377 0.743767
vt 0.294801 0.746778
vt 0.305125 0.747795
vt 0.349126 0.665474
vt 0.342545 0.657455
vt 0.334526 0.650874
vt 0.325377 0.645983
vt 0.315449 0.642972
vt 0.305125 0.641955
vt 0.265860 0.694875
vt 0.265860 0.639750
vt 0.227815 0.640280
vt 0.232985 0.641848
vt 0.237750 0.644395
vt 0.241927 0.647823
vt 0.245355 0.652000
vt 0.247902 0.656765
vt 0.249470 0.661935
vt 0.250000 0.667313
vt 0.249470 0.672690
vt 0.247902 0.677860
vt 0.245355 0.682625
vt 0.241927 0.686802
vt 0.237750 0.690230
vt 0.232985 0.692777
vt 0.227815 0.694345
vt 0.222438 0.747450
vt 0.222438 0.747478
vt 0.222438 0.747494
vt 0.222462 0.747494
vt 0.222438 0.807675
vt 0.265860 0.860250
vt 0.222438 0.807631
vt 0.222438 0.807647
vt 0.222462 0.807631
vt 0.219888 0.805125
vt 0.219915 0.805125
vt 0.219932 0.805125
s 1
usemtl Material.002
f 1/1/1 6/2/1 14/3/1 9/4/1
f 16/5/2 28/6/2 13/7/2 22/8/2 20/9/2 9/4/2 14/3/2 23/10/2
f 59/11/3 57/12/3 17/13/3 19/14/3 20/9/3 22/8/3 65/15/3 67/16/3 66/17/3 68/18/3 63/19/3 64/20/3 62/21/3 69/22/3 56/23/3 55/24/3 53/25/3 54/26/3 60/27/3 61/28/3 58/29/3
f 12/30/4 25/31/4 6/32/4 1/33/4 19/14/4 17/13/4 5/34/4 27/35/4
f 9/36/5 20/9/5 19/14/5 1/37/5
f 23/38/6 14/39/6 6/40/6 25/41/6
f 72/42/3 13/4/3 28/43/3 79/44/3
f 80/45/3 27/46/3 5/1/3 70/47/3 71/47/3
f 70/48/6 5/37/6 17/14/6 57/49/6 7/50/6
f 65/51/6 22/9/6 13/36/6 72/52/6 10/53/6
f 75/54/7 12/14/7 27/55/7 80/56/7 73/57/8 81/57/8 82/57/7
f 28/58/7 16/9/7 74/51/7 76/59/7 79/60/7
f 74/51/9 16/9/9 23/61/9 25/62/9 12/14/9 75/54/9 84/63/9 83/63/9 77/63/9 85/64/9 86/65/9 78/66/9
f 4/67/10 3/68/10 8/69/10 67/70/10 65/71/10 10/72/10 72/73/10 76/74/10 74/75/10 78/76/10
f 8/69/11 11/77/11 66/78/11 67/70/11
f 11/77/12 15/79/12 68/80/12 66/78/12
f 15/79/13 18/39/13 63/81/13 68/80/13
f 18/39/14 21/82/14 64/83/14 63/81/14
f 21/82/15 24/84/15 62/85/15 64/83/15
f 24/84/16 26/86/16 69/87/16 62/85/16
f 26/86/17 29/88/17 56/89/17 69/87/17
f 29/88/18 30/90/18 55/91/18 56/89/18
f 30/90/19 31/92/19 53/93/19 55/91/19
f 31/92/20 32/94/20 54/95/20 53/93/20
f 32/94/21 33/96/21 60/97/21 54/95/21
f 33/96/22 34/98/22 61/99/22 60/97/22
f 34/98/23 35/100/23 58/101/23 61/99/23
f 35/100/24 36/102/24 59/103/24 58/101/24
f 89/104/25 70/104/25 7/105/25 57/106/25 59/103/25 36/102/25 37/8/25 88/107/25 87/107/25 84/108/25 75/109/25 82/110/25
f 88/107/26 37/8/26 38/111/26 90/112/26
f 90/112/27 38/111/27 39/113/27 91/114/27
f 91/114/28 39/113/28 40/115/28 92/116/28
f 92/116/29 40/115/29 41/9/29 93/117/29
f 93/117/30 41/9/30 42/118/30 94/119/30
f 94/119/31 42/118/31 43/120/31 95/121/31
f 95/121/32 43/120/32 44/122/32 96/123/32
f 96/123/33 44/122/33 45/124/33 97/125/33
f 45/124/34 46/126/34 98/127/34 97/125/34
f 46/126/35 47/128/35 99/129/35 98/127/35
f 47/128/36 48/130/36 100/131/36 99/129/36
f 100/131/37 48/130/37 49/36/37 101/132/37
f 101/132/38 49/36/38 50/133/38 102/134/38
f 102/134/39 50/133/39 51/135/39 103/136/39
f 103/136/40 51/135/40 52/137/40 104/138/40
f 104/138/41 52/137/41 3/139/41 4/140/41
f 31/141/3 30/142/3 29/143/3 26/144/3 24/145/3 21/146/3 18/147/3 15/148/3 11/149/3 8/150/3 3/151/3 52/150/3 51/149/3 50/148/3 49/147/3 48/146/3 47/145/3 46/144/3 45/143/3 44/142/3 43/141/3 42/152/3 41/153/3 40/154/3 39/155/3 38/156/3 37/157/3 36/156/3 35/155/3 34/154/3 33/153/3 32/152/3
f 88/1/3 2/1/1 87/1/42
f 4/4/3 86/158/3 85/159/3 88/1/3 90/160/3 91/161/3 92/162/3 93/163/3 94/164/3 95/165/3 96/166/3 97/167/3 98/168/3 99/169/3 100/170/3 101/171/3 102/172/3 103/173/3 104/174/3
f 86/158/4 4/4/4 78/175/4
f 76/176/4 72/177/4 79/178/4
f 77/179/43 88/33/44 85/180/2
f 70/181/3 81/182/1 73/182/45 71/181/46
f 71/181/46 73/182/45 80/183/2
f 88/33/44 77/179/43 83/179/3 2/33/1
f 87/37/42 2/37/1 83/184/3 84/184/42
f 82/185/42 81/185/1 70/186/3 89/186/42
