# Blender 3.6.0
# www.blender.org
mtllib d25t_breech_col.mtl
o Казённик
v -1.012836 -1.321040 0.916853
v 0.987160 1.463273 0.916852
v -1.012838 1.463272 0.916853
v 0.987160 1.463273 -0.887068
v -1.012839 1.463271 -0.887067
v 0.320496 -1.321040 0.679120
v 0.987162 -1.321040 0.916852
v -1.012837 -1.321040 -0.887067
v 0.987161 -1.321040 -0.887068
v -0.267739 -1.321040 0.679121
vn 1.0000 -0.0000 -0.0000
vn -1.0000 -0.0000 -0.0000
vn -0.0000 1.0000 -0.0000
vn -0.0000 -0.0000 1.0000
vn -0.0000 -1.0000 -0.0000
vn -0.0000 -0.0000 -1.0000
vt 0.008324 0.009874
vt 0.489412 0.009874
vt 0.489412 0.490963
vt 0.008324 0.490963
vt 0.248868 0.009874
vt 0.078778 0.080328
vt 0.008324 0.250418
vt 0.078778 0.420509
vt 0.000000 0.000000
vt 0.353236 0.033696
vt 0.248868 0.490963
vt 0.483381 0.196892
vt 0.436933 0.400395
vt 0.300578 0.485339
vt 0.147866 0.468730
vt 0.197158 0.485339
s 1
usemtl Material
f 7/1/1 9/2/1 4/3/1 2/4/1
f 8/1/2 1/2/2 3/3/2 5/4/2
f 5/1/3 3/2/3 2/3/3 4/4/3
f 7/5/4 2/6/4 3/7/4 1/8/4
f 10/9/5 8/10/5 9/11/5 6/9/5
f 9/12/6 8/10/6 5/11/6 4/13/6
f 7/14/5 6/9/5 9/11/5
f 10/9/5 1/15/5 8/16/5
s 0
f 10/9/5 6/9/5 7/14/5
f 10/9/5 7/14/5 1/8/5
