# Blender 4.0.2
# www.blender.org
mtllib goggles.mtl
o Cylinder
v -0.000000 0.500000 0.361970
v 0.283887 0.500000 0.323421
v 0.549420 0.500000 0.192246
v 0.714878 0.500000 -0.000340
v 0.744711 0.500000 -0.211479
v 0.668386 0.500000 -0.308182
v -0.283887 0.500000 0.323421
v -0.549420 0.500000 0.192246
v -0.714878 0.500000 -0.000340
v -0.744711 0.500000 -0.211479
v -0.668386 0.500000 -0.308182
v 0.577447 0.500000 -0.336755
v -0.577447 0.500000 -0.336755
v 0.283887 -0.500000 0.323421
v -0.000000 -0.500000 0.361970
v 0.549420 -0.500000 0.192246
v 0.714878 -0.500000 -0.000340
v 0.744711 -0.500000 -0.211478
v 0.668386 -0.500000 -0.308182
v -0.283887 -0.500000 0.323421
v -0.549420 -0.500000 0.192246
v -0.714878 -0.500000 -0.000340
v -0.744711 -0.500000 -0.211478
v -0.668386 -0.500000 -0.308182
v 0.577447 -0.500000 -0.336755
v -0.577447 -0.500000 -0.336755
vn 0.9110 -0.0000 0.4124
vn 0.9654 -0.0000 -0.2608
vn 0.2926 -0.0000 0.9562
vn 0.6131 -0.0000 0.7900
vn 0.5676 -0.0000 -0.8233
vn -0.9110 -0.0000 0.4124
vn -0.6131 -0.0000 0.7900
vn -0.2926 -0.0000 0.9562
vn -0.0000 -0.0000 1.0000
vn -0.9654 -0.0000 -0.2608
vn -0.5676 -0.0000 -0.8233
vn -0.2998 -0.0000 -0.9540
vn 0.2998 -0.0000 -0.9540
vn -0.0000 1.0000 -0.0000
vn -0.0000 -0.0000 -1.0000
vn -0.0000 -1.0000 -0.0000
vt 0.230145 0.730145
vt 0.261116 0.238884
vt 0.261116 0.261116
vt 0.230145 0.769855
vt 0.238884 0.238884
vt 0.269855 0.769855
vt 0.269855 0.730145
vt 0.238884 0.261116
vt 0.000000 0.000000
vt 0.255594 0.730949
s 1
usemtl Material
f 4/1/1 17/2/1 18/3/2 5/4/2
f 14/2/3 16/3/4 3/4/4 2/1/3
f 5/1/2 18/2/2 19/3/5 6/4/5
f 9/1/6 22/2/6 21/3/7 8/4/7
f 7/1/8 20/2/8 15/3/9 1/4/9
f 3/1/4 16/2/4 17/3/1 4/4/1
f 15/5/9 14/2/3 2/6/3 1/4/9
f 23/2/10 22/3/6 9/4/6 10/1/10
f 8/1/7 21/2/7 20/3/8 7/4/8
f 11/1/11 24/2/11 23/3/10 10/4/10
f 13/7/12 26/3/12 24/8/11 11/1/11
f 19/2/5 25/3/13 12/4/13 6/1/5
s 0
f 9/4/14 4/9/14 6/7/14 10/7/14
f 13/9/15 12/9/15 25/9/15 26/9/15
s 1
f 6/7/14 12/6/14 13/10/14
f 6/7/14 13/10/14 11/1/14
f 6/7/14 11/1/14 10/7/14
f 6/7/14 4/9/14 5/4/14
f 17/3/16 16/2/16 14/2/16
f 17/3/16 14/2/16 15/5/16
f 17/3/16 15/5/16 20/2/16
f 17/3/16 20/2/16 21/2/16
f 17/3/16 21/2/16 22/2/16
f 17/3/16 22/2/16 23/2/16
f 17/3/16 23/2/16 24/2/16
f 17/3/16 24/2/16 26/3/16
s 0
f 17/3/16 26/3/16 25/9/16
s 1
f 17/3/16 25/9/16 19/2/16
f 17/3/16 19/2/16 18/2/16
f 1/4/14 2/6/14 4/9/14
f 2/1/14 3/4/14 4/4/14
s 0
f 9/4/14 1/4/14 4/9/14
s 1
f 9/4/14 7/1/14 1/4/14
f 8/1/14 7/4/14 9/4/14
