# Blender 5.0.1
# www.blender.org
mtllib m256_breech.mtl
o Cube
v -1.250000 1.500000 -0.750000
v -0.750000 1.500000 -1.250000
v 1.250000 1.500000 -0.750000
v 0.750000 1.500000 -1.250000
v -0.750000 1.000000 -1.250000
v 0.750000 1.000000 -1.250000
v -1.250000 -1.000000 -0.750000
v -1.201887 -1.009437 -0.798113
v -1.000000 -1.500000 -0.750000
v 1.250000 -1.000000 -0.750000
v 1.000000 -1.500000 -0.750000
v 1.201887 -1.009437 -0.798113
v 1.125000 -1.250000 1.250000
v 1.250000 -1.000000 -0.250000
v -1.250000 1.500000 -0.250000
v 1.250000 1.500000 -0.250000
v -1.125000 -1.250000 1.250000
v -1.250000 -1.000000 -0.250000
v -1.000000 -1.125000 1.750000
v 1.000000 -1.125000 1.750000
v -1.000000 -1.500000 1.625000
v -1.000000 -1.375000 1.750000
v 1.000000 -1.375000 1.750000
v 1.000000 -1.500000 1.625000
v 1.125000 1.500000 1.000000
v 1.125000 1.250000 1.250000
v -1.125000 1.250000 1.250000
v -1.125000 1.500000 1.000000
vn -0.0069 -0.1042 -0.9945
vn -0.0000 -0.0000 -1.0000
vn 0.0069 -0.1042 -0.9945
vn -0.6961 -0.3481 -0.6279
vn -0.8769 -0.0960 -0.4710
vn -0.7128 -0.1849 -0.6765
vn 0.7128 -0.1849 -0.6765
vn 0.8769 -0.0960 -0.4710
vn 0.6961 -0.3481 -0.6279
vn -0.0000 0.7071 0.7071
vn -0.0000 -0.3827 0.9239
vn -0.0000 0.1052 0.9944
vn -0.0000 1.0000 -0.0000
vn 0.7071 -0.0000 -0.7071
vn 0.9239 -0.0000 -0.3827
vn -0.9239 -0.0000 -0.3827
vn -0.7071 -0.0000 -0.7071
vn 0.1924 -0.1739 -0.9658
vn 0.0487 -0.1912 -0.9803
vn -0.9965 -0.0000 0.0830
vn -0.0000 0.2060 0.9785
vn -0.0487 -0.1912 -0.9803
vn -0.1924 -0.1739 -0.9658
vn 0.8944 -0.4472 -0.0000
vn -0.0000 -0.7071 0.7071
vn 1.0000 -0.0000 -0.0000
vn 0.9901 0.0990 0.0990
vn -0.8944 -0.4472 -0.0000
vn 0.9716 -0.0797 0.2230
vn 0.9714 -0.0851 0.2216
vn 0.9623 -0.1925 0.1925
vn -1.0000 -0.0000 -0.0000
vn 0.9965 -0.0000 0.0830
vn -0.9901 0.0990 0.0990
vn 0.9701 -0.0000 0.2425
vn -0.9714 -0.0851 0.2216
vn -0.9716 -0.0797 0.2230
vn -0.9623 -0.1925 0.1925
vn -0.0000 -1.0000 -0.0000
vn -0.9701 -0.0000 0.2425
vt 0.320783 0.806310
vt 0.328882 0.821534
vt 0.274078 0.850691
vt 0.265978 0.835468
vt 0.317004 0.534865
vt 0.332955 0.724223
vt 0.259941 0.790414
vt 0.169761 0.906798
vt 0.103593 0.955434
vt 0.073643 0.947560
vt 0.155851 0.903824
vt 0.246488 0.196663
vt 0.000000 0.000000
vt 0.199203 0.808032
vt 0.292346 0.840972
vt 0.407537 0.542333
vt 0.409049 0.540801
vt 0.237541 0.870130
vt 0.963457 0.698680
vt 0.423248 0.584988
vt 0.962682 0.695784
vt 0.267634 0.181449
vt 0.308247 0.566869
vt 0.261166 0.631471
vt 0.244342 0.197080
vt 0.222286 0.173351
vt 0.254515 0.588131
vt 0.276200 0.200395
vt 0.220327 0.199250
s 1
f 5/1/1 2/2/2 4/3/2 6/4/3
f 9/5/4 7/6/5 8/5/6
f 12/5/7 10/7/8 11/5/9
f 25/8/10 28/9/10 27/10/10 26/11/10
f 22/12/11 23/13/11 20/13/12 19/13/12
f 2/2/13 1/14/13 15/15/13
s 0
f 2/2/13 15/15/13 28/13/13
s 1
f 10/16/8 12/17/7 6/13/14 3/13/15
f 2/2/13 16/13/13 3/18/13
f 2/2/13 3/18/13 4/3/13
f 8/19/6 7/13/5 1/13/16 5/13/17
f 3/13/15 6/13/14 4/3/14
f 12/5/18 11/5/19 6/20/3
s 0
f 27/13/20 15/13/20 18/13/20 17/13/20
s 1
f 5/13/17 1/13/16 2/2/17
f 20/13/12 26/11/21 27/13/21 19/13/12
f 9/5/22 8/5/23 5/21/1
s 0
f 14/13/24 24/13/24 11/13/24
s 1
f 14/13/24 11/13/24 10/7/24
f 21/22/25 24/13/25 23/13/11 22/12/11
f 10/23/8 3/13/15 16/13/26 14/24/26
f 25/8/27 26/11/27 16/13/27
s 0
f 25/8/13 16/13/13 2/2/13 28/13/13
f 9/13/28 21/13/28 18/13/28
s 1
f 9/13/28 18/13/28 7/5/28
s 0
f 13/13/24 24/13/24 14/13/24
s 1
f 13/13/29 23/25/30 24/26/31
f 15/13/32 1/14/16 7/5/5 18/27/32
s 0
f 14/13/33 16/13/33 26/13/33 13/13/33
s 1
f 27/10/34 28/9/34 15/15/34
f 5/13/1 6/4/3 11/13/19 9/13/22
f 20/28/35 23/25/30 13/13/29
s 0
f 20/28/35 13/13/35 26/13/35
f 21/13/28 17/13/28 18/13/28
s 1
f 22/12/36 17/13/37 21/13/38
s 0
f 9/13/39 11/13/39 24/13/39 21/13/39
s 1
f 17/13/37 22/12/36 19/29/40
s 0
f 17/13/40 19/29/40 27/13/40
