# Blender 3.6.0
# www.blender.org
mtllib machinegunHandle_collision.mtl
o Основание
v 0.619854 -0.090194 0.499999
v 0.543247 -0.143630 0.499999
v 0.496380 -0.149956 0.499999
v -0.496380 -0.149956 0.499999
v -0.619853 -0.090194 0.499999
v -0.641978 -0.048395 0.499999
v -0.649989 -0.001786 0.499999
v -0.499999 0.500000 -0.499999
v 0.643090 0.045000 -0.499999
v 0.543247 -0.143630 -0.499999
v 0.619854 -0.090194 -0.499999
v -0.641978 -0.048395 -0.499999
v -0.619853 -0.090194 -0.499999
v -0.496380 -0.149956 -0.499999
v -0.649876 -0.006072 0.449999
v -0.611689 -0.100126 0.449999
v -0.522350 -0.148325 0.449999
v 0.571221 -0.132013 0.449999
v 0.611689 -0.100127 0.449999
v 0.638981 -0.056428 0.449999
v 0.649876 -0.006072 0.449999
v 0.522351 -0.148325 -0.449999
v 0.571221 -0.132013 -0.449999
v 0.638981 -0.056428 -0.449999
v 0.585816 -0.123027 0.499999
v -0.543247 -0.143630 0.499999
v -0.585815 -0.123026 0.499999
v -0.643090 0.045000 -0.499999
v -0.499999 0.500000 0.500000
v 0.585816 -0.123027 -0.499999
v 0.643090 0.045000 0.499999
v 0.649989 -0.001787 0.499999
v -0.643090 0.045000 0.499999
v 0.500000 0.500000 -0.499999
v 0.496380 -0.149956 -0.499999
v 0.641978 -0.048396 -0.499999
v 0.649989 -0.001787 -0.499999
v -0.649989 -0.001786 -0.499999
v -0.585815 -0.123026 -0.499999
v -0.543247 -0.143630 -0.499999
v 0.500000 0.500000 0.500000
v 0.641978 -0.048396 0.499999
v -0.638981 -0.056428 0.449999
v -0.571221 -0.132013 0.449999
v -0.571221 -0.132013 -0.449999
v -0.522350 -0.148325 -0.449999
v -0.638981 -0.056428 -0.449999
v -0.611689 -0.100126 -0.449999
v -0.649876 -0.006072 -0.449999
v 0.522351 -0.148325 0.449999
v 0.611689 -0.100126 -0.449999
v 0.649876 -0.006072 -0.449999
v -0.517364 -0.098481 0.529999
v -0.576604 -0.064279 0.529999
v -0.599999 0.000000 0.529999
v -0.593969 0.034202 0.529999
v 0.599999 0.000000 0.529999
v 0.549999 0.086603 0.529999
v 0.576604 0.064279 0.529999
v -0.549999 -0.086602 0.529999
v -0.593969 -0.034202 0.529999
v -0.576604 0.064279 0.529999
v -0.549999 0.086603 0.529999
v -0.517364 0.098481 0.529999
v 0.593969 -0.034202 0.529999
v 0.576604 -0.064279 0.529999
v 0.549999 -0.086602 0.529999
v 0.517364 -0.098481 0.529999
v 0.517364 0.098481 0.529999
v 0.593969 0.034202 0.529999
vn -0.0000 1.0000 -0.0000
vn 0.9893 0.1459 -0.0000
vn 0.9747 0.2236 -0.0000
vn -0.9837 -0.1798 -0.0030
vn -0.9984 -0.0574 0.0025
vn -0.9867 -0.1621 0.0117
vn -0.9997 -0.0262 -0.0000
vn -0.0000 -1.0000 -0.0000
vn -0.0000 -0.5035 0.8640
vn -0.0000 -0.0000 -1.0000
vn -0.9844 -0.1755 -0.0069
vn -0.9855 -0.1694 -0.0123
vn -0.9830 -0.1835 -0.0000
vn -0.9855 -0.1694 0.0123
vn 0.5120 -0.0020 0.8590
vn 0.5120 -0.0047 0.8590
vn 0.5107 0.0815 0.8559
vn 0.4054 -0.3127 0.8590
vn 0.4839 -0.1674 0.8590
vn 0.4823 -0.1719 0.8590
vn 0.3979 -0.3222 0.8590
vn 0.9539 0.3000 -0.0000
vn -0.8836 -0.4677 -0.0222
vn -0.8838 -0.4678 -0.0000
vn -0.9061 -0.4230 0.0029
vn -0.8898 -0.4559 0.0199
vn -0.9369 -0.3496 -0.0000
vn -0.8783 -0.4780 0.0132
vn 0.2847 -0.4255 0.8590
vn 0.2684 -0.4359 0.8590
vn -0.0000 -0.0000 1.0000
vn 0.0178 0.0103 0.9998
vn 0.0825 0.0523 0.9952
vn 0.0305 0.0439 0.9986
vn 0.0088 0.0426 0.9991
vn -0.0129 0.0627 0.9980
vn -0.0305 0.0439 0.9986
vn -0.0825 0.0523 0.9952
vn -0.0178 0.0103 0.9998
vn -0.4901 0.1541 0.8579
vn -0.6712 -0.7412 -0.0074
vn -0.7547 -0.6560 0.0067
vn -0.7066 -0.7072 0.0251
vn -0.7725 -0.6350 -0.0000
vn -0.8701 -0.4929 -0.0000
vn -0.6826 -0.7305 -0.0186
vn -0.6939 -0.7194 -0.0296
vn -0.6939 -0.7194 0.0296
vn -0.1575 -0.4932 0.8555
vn -0.2684 -0.4359 0.8590
vn -0.2847 -0.4255 0.8590
vn -0.1474 -0.4970 0.8551
vn -0.0057 0.0751 0.9972
vn 0.0057 0.0751 0.9972
vn -0.6628 -0.7488 -0.0000
vn -0.4354 -0.8996 -0.0346
vn -0.4357 -0.9001 -0.0000
vn -0.4550 -0.8905 0.0048
vn -0.4537 -0.8907 0.0277
vn -0.5243 -0.8515 -0.0000
vn -0.4183 -0.9080 0.0231
vn 0.1575 -0.4932 0.8555
vn 0.1474 -0.4970 0.8551
vn 0.4901 0.1541 0.8579
vn -0.9893 0.1459 -0.0000
vn -0.0813 -0.9966 -0.0092
vn -0.1975 -0.9803 0.0090
vn -0.1549 -0.9875 0.0280
vn -0.2192 -0.9757 -0.0000
vn -0.3835 -0.9235 -0.0000
vn -0.1130 -0.9933 -0.0263
vn -0.1337 -0.9903 -0.0371
vn -0.1337 -0.9903 0.0371
vn -0.0707 -0.5236 0.8490
vn -0.5107 0.0815 0.8559
vn -0.5120 -0.0047 0.8590
vn -0.5120 -0.0020 0.8590
vn 0.9867 -0.1621 0.0117
vn 0.9983 -0.0574 0.0025
vn 0.9837 -0.1798 -0.0030
vn 0.9997 -0.0262 -0.0000
vn 0.9844 -0.1755 -0.0069
vn 0.9855 -0.1694 -0.0123
vn -0.0627 -0.9980 -0.0000
vn -0.9539 0.3000 -0.0000
vn -0.4823 -0.1719 0.8590
vn -0.4839 -0.1674 0.8590
vn 0.9855 -0.1694 0.0123
vn 0.9830 -0.1835 -0.0000
vn 0.8898 -0.4559 0.0199
vn 0.9261 -0.3771 0.0048
vn 0.8738 -0.4863 -0.0055
vn 0.9369 -0.3496 -0.0000
vn 0.8783 -0.4780 -0.0132
vn 0.8836 -0.4677 -0.0222
vn 0.1337 -0.9903 -0.0371
vn 0.1338 -0.9910 -0.0000
vn 0.1413 -0.9900 0.0052
vn 0.1130 -0.9933 0.0263
vn 0.0627 -0.9980 -0.0000
vn 0.1549 -0.9875 0.0280
vn 0.0707 -0.5236 0.8490
vn -0.3979 -0.3222 0.8590
vn -0.4054 -0.3127 0.8590
vn 0.8836 -0.4677 0.0222
vn 0.8701 -0.4929 -0.0000
vn 0.7066 -0.7072 0.0251
vn 0.7547 -0.6560 0.0067
vn 0.6712 -0.7412 -0.0074
vn 0.7725 -0.6350 -0.0000
vn 0.6826 -0.7305 -0.0186
vn 0.6939 -0.7194 -0.0296
vn 0.4354 -0.8996 -0.0346
vn 0.4357 -0.9001 -0.0000
vn 0.4550 -0.8905 0.0048
vn 0.4183 -0.9080 0.0231
vn 0.3835 -0.9235 -0.0000
vn 0.2192 -0.9757 -0.0000
vn 0.4537 -0.8907 0.0277
vn 0.6939 -0.7194 0.0296
vn 0.6628 -0.7488 -0.0000
vn 0.5243 -0.8515 -0.0000
vt 0.090000 0.590000
vt 0.410000 0.590000
vt 0.410000 0.910000
vt 0.090000 0.910000
vt 0.000000 0.000000
vt 0.349758 0.875093
vt 0.410000 0.090000
vt 0.410000 0.410000
vt 0.285603 0.905988
vt 0.375093 0.849758
vt 0.394155 0.819421
vt 0.405988 0.785603
vt 0.394155 0.680579
vt 0.090000 0.750000
vt 0.094012 0.785604
vt 0.105845 0.819422
vt 0.150242 0.875093
vt 0.124907 0.849759
vt 0.590000 0.910000
vt 0.910000 0.910000
vt 0.910000 0.590000
vt 0.180579 0.894155
vt 0.250000 0.590000
vt 0.214397 0.594012
vt 0.592431 0.777784
vt 0.214397 0.905989
vt 0.250000 0.910000
vt 0.592431 0.722216
vt 0.180579 0.605845
vt 0.150242 0.624907
vt 0.090000 0.090000
vt 0.090000 0.410000
vt 0.285603 0.594011
vt 0.094011 0.714397
vt 0.647154 0.872567
vt 0.405988 0.714397
vt 0.319421 0.605845
s 1
usemtl Material
f 8/1/1 29/2/1 41/3/1 34/4/1
f 37/5/2 9/6/3 31/3/3 32/4/2
f 49/7/4 15/8/5 7/5/6
s 0
f 49/7/7 7/5/7 38/5/7
f 4/5/8 14/5/8 35/5/8 3/5/8
f 3/5/9 68/5/9 53/5/9 4/9/9
s 1
f 28/5/10 9/5/10 37/10/10
f 28/5/10 37/10/10 36/11/10
f 28/5/10 36/11/10 11/12/10
f 28/5/10 11/12/10 30/1/10
f 28/5/10 30/1/10 10/1/10
f 28/5/10 10/1/10 35/13/10
s 0
f 28/5/10 35/13/10 14/5/10
s 1
f 28/5/10 14/5/10 40/14/10
f 28/5/10 40/14/10 39/15/10
f 28/5/10 39/15/10 13/16/10
f 28/5/10 13/16/10 12/1/10
f 28/5/10 12/1/10 38/17/10
f 12/18/11 49/7/4 38/5/12
s 0
f 12/5/13 6/5/13 15/5/13
s 1
f 12/5/11 15/5/5 49/7/4
f 15/5/5 6/5/14 7/4/6
f 57/19/15 32/4/16 31/5/17 70/20/17
f 1/4/18 42/3/19 65/21/20 66/20/21
f 9/5/3 34/4/22 41/5/22 31/5/3
f 13/2/23 47/5/23 12/1/23
f 47/7/24 43/8/25 6/5/26
s 0
f 47/7/27 6/5/27 12/5/27
s 1
f 43/8/25 5/22/28 6/17/26
f 25/23/29 1/24/18 66/21/21 67/20/30
f 61/20/31 54/21/31 60/21/31
f 61/20/31 60/21/31 53/21/31
s 0
f 61/20/31 53/21/31 68/5/31
s 1
f 61/20/31 68/5/31 67/21/31
f 61/20/31 67/21/31 66/21/31
f 61/20/31 66/21/31 65/21/31
f 61/20/31 65/21/31 57/20/31
f 61/20/31 57/20/31 70/20/32
f 61/20/31 70/20/32 59/21/33
f 61/20/31 59/21/33 58/21/34
f 61/20/31 58/21/34 69/21/35
s 0
f 61/20/31 69/21/31 64/5/31
s 1
f 61/20/31 64/5/36 63/21/37
f 61/20/31 63/21/37 62/21/38
f 61/20/31 62/21/38 56/25/39
f 61/20/31 56/25/39 55/21/31
s 0
f 56/20/40 29/2/40 33/5/40
s 1
f 48/7/41 16/8/42 5/5/43
s 0
f 48/7/44 5/5/44 13/5/44
s 1
f 5/22/28 43/8/25 47/7/24
s 0
f 5/22/45 47/7/45 13/2/45
s 1
f 39/15/46 48/7/41 13/5/47
f 16/8/42 27/26/48 5/22/43
f 53/21/49 60/5/50 27/26/51 26/27/52
f 62/28/38 29/2/53 56/20/39
f 62/21/38 63/20/37 29/2/53
f 63/21/37 64/20/36 29/2/53
f 42/29/19 32/30/16 57/20/15 65/19/20
f 69/21/35 41/3/54 29/2/53 64/5/36
s 0
f 39/5/55 27/26/55 16/8/55
s 1
f 39/5/46 16/8/42 48/7/41
f 40/14/56 45/5/56 39/15/56
f 45/31/57 44/32/58 27/5/59
s 0
f 45/31/60 27/5/60 39/5/60
s 1
f 44/32/58 26/27/61 27/26/59
f 25/3/29 67/21/30 68/20/62 2/33/63
f 58/20/34 41/3/54 69/21/35
f 58/21/34 59/20/33 41/3/54
f 59/21/33 70/20/32 41/3/54
s 0
f 70/20/64 31/5/64 41/5/64
s 1
f 28/5/65 38/2/65 7/3/65 33/4/65
f 46/7/66 17/8/67 26/5/68
s 0
f 46/7/69 26/5/69 40/5/69
s 1
f 26/27/61 44/32/58 45/31/57
s 0
f 26/27/70 45/31/70 40/14/70
s 1
f 14/34/71 46/7/66 40/5/72
f 17/8/67 4/9/73 26/27/68
f 4/9/74 53/5/49 26/27/52
f 56/20/75 33/4/75 7/3/76 55/5/77
f 32/5/78 21/8/79 52/7/80
s 0
f 32/5/81 52/7/81 37/5/81
s 1
f 52/7/80 36/11/82 37/10/83
s 0
f 14/5/84 4/9/84 17/8/84
s 1
f 14/5/71 17/8/67 46/7/66
s 0
f 8/1/85 28/5/85 33/5/85 29/2/85
s 1
f 61/35/86 55/5/77 7/4/76 6/3/87
f 42/29/88 21/8/79 32/5/78
s 0
f 21/8/89 42/29/89 36/5/89
s 1
f 21/8/79 36/5/82 52/7/80
f 42/5/90 20/32/91 24/31/92
s 0
f 42/5/93 24/31/93 36/5/93
s 1
f 24/31/92 11/12/94 36/11/95
f 10/36/96 22/5/96 35/13/96
f 22/7/97 50/8/98 3/5/99
s 0
f 22/7/100 3/5/100 35/5/100
s 1
f 50/8/98 2/33/101 3/37/99
f 2/33/63 68/5/62 3/5/102
s 0
f 34/4/10 9/5/10 28/5/10 8/1/10
s 1
f 54/21/103 61/5/86 6/17/87 5/22/104
f 1/4/105 20/32/91 42/5/90
s 0
f 20/32/106 1/4/106 11/5/106
s 1
f 20/32/91 11/5/94 24/31/92
f 1/5/107 19/8/108 51/7/109
s 0
f 1/5/110 51/7/110 11/5/110
s 1
f 51/7/109 30/1/111 11/2/112
f 30/2/113 23/5/113 10/1/113
f 23/31/114 18/32/115 2/5/116
s 0
f 23/31/117 2/5/117 10/1/117
s 1
f 2/33/101 50/8/98 22/7/97
s 0
f 2/33/118 22/7/118 10/36/118
s 1
f 18/32/115 25/3/119 2/4/116
f 60/21/50 54/5/103 5/22/104 27/26/51
f 25/23/120 19/8/108 1/5/107
s 0
f 19/8/121 25/23/121 30/5/121
s 1
f 19/8/108 30/5/111 51/7/109
f 25/3/119 18/32/115 23/31/114
s 0
f 25/3/122 23/31/122 30/2/122
