# Blender 4.0.2
# www.blender.org
mtllib periscope.mtl
o Основание
v 0.374590 0.144932 0.500008
v -0.374525 0.144932 0.500008
v -0.374525 -0.146390 0.500008
v 0.374590 -0.146390 0.500008
v -0.374525 0.144932 -0.490488
v 0.374590 0.144932 -0.490488
v -0.374525 -0.146390 -0.490488
v 0.374590 -0.146390 -0.490488
vn -0.0000 1.0000 -0.0000
vn -0.0000 0.7071 -0.7071
vn 0.0003 0.7071 -0.7071
vn -0.0000 -1.0000 -0.0000
vn -0.0000 -0.0000 1.0000
vn -0.0000 -0.0000 -1.0000
vn 1.0000 -0.0000 -0.0000
vn -1.0000 -0.0000 -0.0000
vt 0.090000 0.590000
vt 0.388564 0.830000
vt 0.388564 0.670000
vt 0.090000 0.910000
vt 0.407569 0.722216
vt 0.319283 0.869999
vt 0.222638 0.594825
vt 0.410000 0.590000
vt 0.410000 0.910000
vt 0.111436 0.750000
vt 0.250000 0.590000
vt 0.328784 0.886459
s 1
usemtl Material.002
f 1/1/1 6/2/2 5/3/3 2/4/1
f 4/3/4 3/5/4 7/6/4 8/7/4
f 1/1/5 2/8/5 3/9/5 4/4/5
f 8/10/6 7/6/6 5/3/6 6/11/6
f 8/7/7 6/2/7 1/5/7 4/3/7
f 5/3/8 7/12/8 3/5/8 2/3/8
