# Blender 3.6.0
# www.blender.org
mtllib turret_wheel_collision.mtl
o Ручка
v -0.248509 -0.334337 0.430430
v -0.497018 -0.334337 -0.000000
v -0.430430 -0.334337 -0.248509
v 0.248509 -0.334337 -0.430430
v 0.430430 -0.334337 -0.248509
v 0.248509 -0.334337 0.430430
v -0.000000 -0.168665 0.428411
v -0.000000 -0.234934 0.497018
v -0.000000 -0.192864 0.471966
v -0.220010 -0.168665 0.369460
v -0.248509 -0.234934 0.430430
v -0.238102 -0.192864 0.408166
v -0.365361 -0.168665 0.224279
v -0.430430 -0.234934 0.248509
v -0.406669 -0.192864 0.239661
v -0.426991 -0.168665 -0.005302
v -0.497018 -0.234934 -0.000000
v -0.471447 -0.192864 -0.001936
v -0.371015 -0.168665 -0.214206
v -0.430430 -0.234934 -0.248509
v -0.408734 -0.192864 -0.235983
v -0.214206 -0.168665 -0.371015
v -0.248509 -0.234934 -0.430430
v -0.235983 -0.192864 -0.408734
v 0.000000 -0.168665 -0.428411
v 0.000000 -0.234934 -0.497018
v 0.000000 -0.192864 -0.471966
v 0.214206 -0.168665 -0.371015
v 0.248509 -0.234934 -0.430430
v 0.235983 -0.192864 -0.408734
v 0.371015 -0.168665 -0.214206
v 0.430430 -0.234934 -0.248509
v 0.408734 -0.192864 -0.235983
v 0.428411 -0.168665 0.000000
v 0.497018 -0.234934 0.000000
v 0.471966 -0.192864 0.000000
v 0.430430 -0.234934 0.248509
v 0.371015 -0.168665 0.214206
v 0.408734 -0.192864 0.235983
v 0.214206 -0.168665 0.371015
v 0.248509 -0.234934 0.430430
v 0.235983 -0.192864 0.408734
v -0.000000 -0.334337 0.497018
v -0.430430 -0.334337 0.248509
v -0.248509 -0.334337 -0.430430
v 0.000000 -0.334337 -0.497018
v 0.497018 -0.334337 0.000000
v 0.430430 -0.334337 0.248509
v 0.026589 -0.168665 0.259523
v 0.038103 -0.168665 0.418202
v -0.026651 -0.168665 0.259477
v -0.038103 -0.168665 0.418202
v -0.115971 -0.500010 0.200867
v -0.231942 -0.500010 -0.000000
v -0.200867 -0.500010 -0.115971
v -0.115971 -0.500010 -0.200867
v 0.115971 -0.500010 -0.200867
v 0.200867 -0.500010 -0.115971
v 0.200867 -0.500010 0.115971
v 0.115971 -0.500010 0.200867
v -0.000000 -0.500010 0.231942
v -0.200867 -0.500010 0.115971
v 0.000000 -0.500010 -0.231942
v 0.231942 -0.500010 0.000000
vn -0.5000 -0.0000 -0.8660
vn -0.4835 0.2548 -0.8374
vn -0.0000 0.2548 -0.9670
vn -0.0000 -0.0000 -1.0000
vn 1.0000 -0.0000 -0.0000
vn 0.9670 0.2548 -0.0000
vn 0.8374 0.2548 0.4835
vn 0.8660 -0.0000 0.5000
vn 0.2504 0.9573 0.1446
vn 0.1446 0.9573 0.2504
vn 0.3587 0.6967 0.6213
vn 0.6213 0.6967 0.3587
vn 0.4835 0.2548 0.8374
vn -0.0000 0.9573 0.2892
vn -0.1045 0.9149 0.3898
vn -0.1514 0.9555 0.2531
vn -0.3636 0.6896 0.6263
vn -0.0000 0.6967 0.7174
vn -0.4817 0.2503 0.8398
vn -0.0000 0.2548 0.9670
vn -0.2473 0.9567 0.1532
vn -0.6200 0.6961 0.3621
vn -0.8401 0.2548 0.4788
vn -0.2961 0.9551 -0.0041
vn -0.7112 0.7029 -0.0016
vn -0.9659 0.2590 0.0025
vn -0.2504 0.9573 -0.1446
vn -0.6213 0.6967 -0.3587
vn -0.8374 0.2548 -0.4835
vn -0.1446 0.9573 -0.2504
vn -0.3587 0.6967 -0.6213
vn -0.0000 0.9301 -0.3672
vn -0.0000 0.6967 -0.7174
vn 0.1910 0.9242 -0.3307
vn 0.3587 0.6967 -0.6213
vn 0.4835 0.2548 -0.8374
vn 0.2504 0.9573 -0.1446
vn 0.6213 0.6967 -0.3587
vn 0.8374 0.2548 -0.4835
vn 0.3010 0.9536 -0.0000
vn 0.7174 0.6967 -0.0000
vn 0.1047 0.9146 0.3906
vn -0.5000 -0.0000 0.8660
vn -0.0000 -0.0000 1.0000
vn -1.0000 -0.0000 -0.0000
vn -0.8660 -0.0000 0.5000
vn -0.5247 -0.8396 -0.1406
vn 0.1406 -0.8396 0.5247
vn 0.5000 -0.0000 -0.8660
vn 0.8660 -0.0000 -0.5000
vn -0.0000 -1.0000 -0.0000
vn 0.3841 -0.8396 0.3841
vn -0.3841 -0.8396 0.3841
vn -0.0000 1.0000 -0.0000
vn 0.3841 -0.8396 -0.3841
vn 0.1406 -0.8396 -0.5247
vn -0.1406 -0.8396 -0.5247
vn 0.5000 -0.0000 0.8660
vn -0.1406 -0.8396 0.5247
vn -0.8660 -0.0000 -0.5000
vn -0.3841 -0.8396 -0.3841
vn 0.5247 -0.8396 0.1406
vn 0.5247 -0.8396 -0.1406
vn -0.5247 -0.8396 0.1406
vt 0.090000 0.590000
vt 0.410000 0.590000
vt 0.410000 0.910000
vt 0.090000 0.910000
vt 0.250000 0.910000
vt 0.402169 0.799443
vt 0.344046 0.620557
vt 0.155954 0.620557
vt 0.097831 0.799443
vt 0.000000 0.000000
vt 0.388564 0.670000
vt 0.410000 0.750000
vt 0.124907 0.849758
vt 0.180579 0.894155
vt 0.405988 0.714397
vt 0.405988 0.785603
vt 0.170000 0.611436
vt 0.111436 0.670000
vt 0.170000 0.888564
vt 0.330000 0.611436
vt 0.111436 0.830000
vt 0.092431 0.777784
vt 0.111436 0.670000
vt 0.195277 0.599649
vt 0.151726 0.876263
vt 0.198048 0.901331
vt 0.147154 0.872567
vt 0.116053 0.837512
vt 0.132284 0.641635
vt 0.103476 0.685729
vt 0.276335 0.592182
vt 0.223665 0.592182
vt 0.173848 0.609284
vt 0.090546 0.736787
vt 0.094896 0.789278
s 1
usemtl Material.001
f 45/1/1 23/2/2 26/3/3 46/4/4
f 47/1/5 35/2/6 37/3/7 48/4/8
f 38/1/9 40/2/10 42/3/11 39/4/12
f 39/1/12 42/2/11 41/3/13 37/4/7
f 7/5/14 52/6/15 10/7/16 12/8/17 9/9/18
f 9/1/18 12/2/17 11/3/19 8/4/20
f 10/1/16 13/2/21 15/3/22 12/4/17
f 12/1/17 15/2/22 14/3/23 11/4/19
f 13/1/21 16/2/24 18/3/25 15/4/22
f 15/1/22 18/2/25 17/3/26 14/4/23
f 16/1/24 19/2/27 21/3/28 18/4/25
f 18/1/25 21/2/28 20/3/29 17/4/26
f 19/1/27 22/2/30 24/3/31 21/4/28
f 21/1/28 24/2/31 23/3/2 20/4/29
f 22/1/30 25/2/32 27/3/33 24/4/31
f 24/1/31 27/2/33 26/3/3 23/4/2
f 25/1/32 28/2/34 30/3/35 27/4/33
f 27/1/33 30/2/35 29/3/36 26/4/3
f 28/1/34 31/2/37 33/3/38 30/4/35
f 30/1/35 33/2/38 32/3/39 29/4/36
f 31/1/37 34/2/40 36/3/41 33/4/38
f 33/1/38 36/2/41 35/3/6 32/4/39
f 34/1/40 38/2/9 39/3/12 36/4/41
f 36/1/41 39/2/12 37/3/7 35/4/6
f 8/1/20 41/2/13 42/3/11 9/4/18
f 9/5/18 42/6/11 40/7/10 50/8/42 7/9/14
f 8/2/20 11/3/19 1/10/43 43/1/44
f 14/10/23 17/3/26 2/10/45 44/10/46
s 0
f 2/1/47 3/10/47 55/11/47 54/12/47
f 43/1/48 61/10/48 60/10/48 6/10/48
s 1
f 4/13/49 29/10/36 32/10/39 5/14/50
f 11/10/19 14/3/23 44/15/46 1/16/43
f 57/17/51 58/18/51 64/10/51
s 0
f 57/17/51 64/10/51 59/10/51
s 1
f 57/17/51 59/10/51 60/19/51
s 0
f 57/17/51 60/19/51 61/10/51
f 57/17/51 61/10/51 53/10/51
f 57/17/51 53/10/51 62/10/51
f 57/17/51 62/10/51 54/10/51
s 1
f 57/17/51 54/10/51 55/11/51
f 57/17/51 55/11/51 56/20/51
s 0
f 57/17/51 56/20/51 63/10/51
s 1
f 60/19/52 59/21/52 48/10/52 6/10/52
s 0
f 53/10/53 1/16/53 44/15/53 62/10/53
s 1
f 46/10/4 26/3/3 29/10/36 4/10/49
f 19/22/27 51/10/54 22/23/30
f 51/10/54 25/24/32 22/23/30
f 58/18/55 57/17/55 4/13/55 5/14/55
f 49/10/54 31/25/37 28/26/34
s 0
f 49/10/54 51/10/54 52/10/54 50/10/54
f 57/10/56 63/10/56 46/10/56 4/10/56
s 1
f 56/10/57 45/1/57 46/10/57 63/10/57
f 6/10/58 41/10/13 8/2/20 43/1/44
f 16/27/24 51/10/54 19/22/27
s 0
f 16/27/54 52/10/54 51/10/54
f 51/10/54 49/10/54 28/26/54 25/5/54
f 50/10/54 34/10/54 49/10/54
s 1
f 34/28/40 31/25/37 49/10/54
s 0
f 61/10/59 43/1/59 1/10/59 53/10/59
s 1
f 17/2/26 20/3/29 3/10/60 2/1/45
f 13/5/21 52/10/15 16/27/24
f 7/29/14 50/30/42 52/10/15
f 13/31/21 10/32/16 52/33/15
f 40/34/10 38/35/9 50/30/42
f 38/35/9 34/28/40 50/10/42
f 20/10/29 23/3/2 45/10/1 3/10/60
s 0
f 3/10/61 45/10/61 56/20/61 55/11/61
f 59/10/62 64/10/62 47/1/62 48/4/62
s 1
f 48/10/8 37/3/7 41/10/13 6/10/58
f 5/10/50 32/10/39 35/3/6 47/4/5
s 0
f 47/4/63 64/10/63 58/10/63 5/14/63
f 62/10/64 44/10/64 2/10/64 54/12/64
